:SAMPLES-PER-SECOND 30
:FULLY-SPECIFIED
:DEGREES
33
root  74.3808 39.6517 1.2462 -176.691 -87.9288 172.652
RightUpLeg  1.27326 -13.4459 -4.57273
RightLeg  15.7716 -5.13483 2.79117
RightFoot  -12.4594 -0.0901248 -0.609619
RightToes  0.00048216 0.542163 -0.142577
Spine  7.94124 -0.462846 2.12322
Spine1  4.82406 -0.597202 2.88209
HEad  -5.11449 -4.05496 -3.74595
LeftShoulder1  3.96029 -6.82063 -32.2821
LeftArm  -27.1279 21.2194 -30.2895
LeftForeArm  31.5445 -17.8336 -1.76004
LeftHand  -0.25398 0.0180481 5.50724
RightShoulder  3.03613 4.91775 30.0809
RightArm  -27.552 -21.6211 30.4726
RightForeArm  6.77103 8.97228 1.43527
RightHand  -1.14823 3.00803 -16.0654
LeftUpLeg  -5.00938 10.5393 0.589227
LeftLeg  23.0883 4.97336 2.64327
LeftFoot  -10.0193 0.0919145 -2.55844
LeftToes  1.06245e-005 4.65855e-005 -8.18504e-006
34
root  74.1662 39.5468 1.27384 177.643 -88.4999 177.909
RightUpLeg  1.80708 -14.0955 -4.76165
RightLeg  16.6615 -4.87747 2.79828
RightFoot  -13.2154 -0.0939688 -0.275442
RightToes  0.00048216 0.542163 -0.142577
Spine  9.00141 -0.55949 3.13606
Spine1  5.27656 -0.527949 2.76755
HEad  -6.23408 -3.98312 -4.12556
LeftShoulder1  4.12099 -6.89837 -33.5302
LeftArm  -26.5578 22.2667 -33.6023
LeftForeArm  32.9167 -18.7727 -2.10282
LeftHand  -0.25398 0.0180481 5.50724
RightShoulder  3.24995 5.2612 31.1218
RightArm  -27.9476 -20.9119 33.8668
RightForeArm  7.14738 8.93714 1.47639
RightHand  -1.24013 3.35002 -16.6674
LeftUpLeg  -7.61536 10.2844 1.13829
LeftLeg  28.9825 4.00586 2.72793
LeftFoot  -7.8799 0.193805 -4.73847
LeftToes  1.06245e-005 4.65855e-005 -8.18504e-006
35
root  73.8961 39.4788 1.32321 178.627 -88.9949 176.657
RightUpLeg  2.41598 -14.341 -5.16867
RightLeg  17.1993 -4.9764 2.82233
RightFoot  -13.7981 -0.0931312 0.0143674
RightToes  0.00048216 0.542163 -0.142577
Spine  9.49042 -0.555994 4.00903
Spine1  6.07724 -0.331848 2.52387
HEad  -7.62493 -3.47371 -3.41509
LeftShoulder1  4.36297 -7.13688 -34.8976
LeftArm  -25.1772 23.3889 -36.3824
LeftForeArm  34.3033 -19.2236 -2.30915
LeftHand  -0.25398 0.0180481 5.50724
RightShoulder  3.44503 5.58658 31.9472
RightArm  -27.8487 -19.898 37.0022
RightForeArm  7.67298 8.97623 1.61971
RightHand  -1.35425 3.56897 -17.7327
LeftUpLeg  -10.2571 10.2718 1.58506
LeftLeg  34.3276 2.59878 2.25647
LeftFoot  -5.44962 0.388161 -6.94013
LeftToes  1.06245e-005 4.65855e-005 -8.18504e-006
36
root  73.5777 39.4495 1.39462 -157.959 -89.2684 153.373
RightUpLeg  2.79549 -14.3741 -5.81772
RightLeg  17.4118 -5.14003 2.93172
RightFoot  -14.2558 -0.0876144 0.34583
RightToes  0.00048216 0.542163 -0.142577
Spine  9.41283 -0.379492 4.60181
Spine1  6.75514 0.0407769 2.06177
HEad  -8.80367 -2.92186 -2.05543
LeftShoulder1  4.64794 -7.49694 -36.126
LeftArm  -23.2663 24.7197 -38.5943
LeftForeArm  35.464 -18.9165 -2.38311
LeftHand  -0.25398 0.0180481 5.50724
RightShoulder  3.59568 5.81087 32.6546
RightArm  -27.4558 -18.8099 39.6341
RightForeArm  8.60438 9.20075 1.81683
RightHand  -1.47394 3.8459 -18.6994
LeftUpLeg  -12.865 10.4032 1.74127
LeftLeg  38.2536 1.44856 1.59635
LeftFoot  -4.31774 0.51919 -8.05404
LeftToes  1.06245e-005 4.65855e-005 -8.18504e-006
37
root  73.22 39.4663 1.48766 -110.712 -89.1483 106.59
RightUpLeg  3.11259 -14.1913 -6.62485
RightLeg  17.086 -5.40343 3.035
RightFoot  -14.5264 -0.0706581 0.996987
RightToes  0.00048216 0.542163 -0.142577
Spine  9.20512 -0.0907195 4.68127
Spine1  6.80897 0.424999 1.63755
HEad  -9.02825 -2.9992 -1.08933
LeftShoulder1  4.81694 -7.65987 -36.9993
LeftArm  -21.0447 26.1755 -40.3853
LeftForeArm  36.1271 -17.7236 -2.47879
LeftHand  -0.25398 0.0180481 5.50724
RightShoulder  3.67282 5.89719 33.1196
RightArm  -26.6959 -17.7463 41.6035
RightForeArm  9.66518 9.47234 2.08564
RightHand  -1.62662 4.40094 -19.4551
LeftUpLeg  -15.2291 10.4513 1.64497
LeftLeg  40.1283 1.06415 1.33882
LeftFoot  -4.38001 0.509958 -7.94229
LeftToes  1.06245e-005 4.65855e-005 -8.18504e-006
